<?xml version="1.0" encoding="UTF-8" standalone="no"?>
<!DOCTYPE svg PUBLIC "-//W3C//DTD SVG 1.1//EN" "http://www.w3.org/Graphics/SVG/1.1/DTD/svg11.dtd">
<svg width="100%" height="100%" viewBox="0 0 843 694" version="1.1" xmlns="http://www.w3.org/2000/svg" xmlns:xlink="http://www.w3.org/1999/xlink" xml:space="preserve" xmlns:serif="http://www.serif.com/" style="fill-rule:evenodd;clip-rule:evenodd;stroke-linejoin:round;stroke-miterlimit:2;">
    <g transform="matrix(1,0,0,1,-1376,-3351)">
        <g transform="matrix(1.74556,0,0,1.74556,-133.676,3186)">
            <g>
                <g transform="matrix(2.26025,-1.04677,0.899927,1.94318,-315.686,296.787)">
                    <path d="M476.672,239.776L467.311,239.776L467.185,282.629C467.185,282.629 472.412,279.341 476.672,279.104L476.672,239.776Z" style="fill:url(#_Radial1);"/>
                </g>
                <g transform="matrix(0.630668,-1.66418,1.66418,0.630668,284.646,709.524)">
                    <circle cx="378.678" cy="257.766" r="49.124" style="fill:white;"/>
                </g>
                <g transform="matrix(0.31382,-1.46615,1.46615,0.31382,455.675,716.208)">
                    <circle cx="378.678" cy="257.766" r="49.124" style="fill:url(#_Linear2);"/>
                </g>
                <g transform="matrix(1.3917,-0.644525,0.644525,1.3917,-451.185,-2062.76)">
                    <path d="M193.048,1758.04L193.048,1778.91L180.843,1778.91L180.843,1719.68L203.952,1719.68C208.4,1719.68 212.312,1720.49 215.689,1722.12C219.066,1723.75 221.663,1726.06 223.48,1729.06C225.297,1732.05 226.206,1735.46 226.206,1739.29C226.206,1745.09 224.219,1749.67 220.246,1753.02C216.272,1756.37 210.773,1758.04 203.748,1758.04L193.048,1758.04ZM193.048,1748.16L203.952,1748.16C207.179,1748.16 209.641,1747.4 211.336,1745.88C213.031,1744.36 213.879,1742.19 213.879,1739.37C213.879,1736.47 213.024,1734.12 211.315,1732.33C209.607,1730.54 207.247,1729.62 204.237,1729.56L193.048,1729.56L193.048,1748.16Z" style="fill:white;fill-rule:nonzero;"/>
                </g>
                <g transform="matrix(0.906892,0,0,0.906892,132.175,23.8483)">
                    <g>
                        <g transform="matrix(2.44429,0,0,2.44429,1119.8,494.647)">
                            <path d="M0,-65.99C-15.963,-75.234 -31.324,-74.454 -31.324,-74.454C-31.324,-74.454 -46.684,-75.234 -62.646,-65.99C-74.828,-58.935 -82.345,-36.045 -72.218,-10.506C-64.387,9.244 -58.297,8.775 -58.297,8.775L-35.425,8.775C-35.425,8.775 -36.846,-6.731 -35.605,-12.022C-34.161,-18.182 -32.796,-19.397 -31.346,-19.397C-29.896,-19.397 -28.815,-18.195 -26.904,-12.022C-25.297,-6.831 -27.222,8.775 -27.222,8.775L-4.351,8.775C-4.351,8.775 3.567,8.33 11.398,-11.419C21.524,-36.958 12.181,-58.935 0,-65.99" style="fill:rgb(255,125,75);fill-rule:nonzero;"/>
                        </g>
                        <g transform="matrix(2.44429,0,0,2.44429,195.294,-1340.28)">
                            <clipPath id="_clip3">
                                <path d="M346.909,676.249C346.909,676.249 331.549,675.468 315.585,684.712C303.404,691.766 295.888,714.658 306.015,740.197C311.438,753.874 316.026,757.854 318.335,759.009L342.745,759.009C342.387,756.187 340.632,741.42 342.56,736.908C345.168,730.796 346.909,732.205 346.909,732.205C346.909,732.205 348.65,730.796 351.259,736.908C353.186,741.42 351.431,756.187 351.071,759.009L375.483,759.009C377.792,757.854 384.207,752.961 389.631,739.285C399.758,713.744 390.414,691.766 378.232,684.712C364.577,676.804 351.361,676.231 347.827,676.231C347.228,676.231 346.909,676.249 346.909,676.249Z" clip-rule="nonzero"/>
                            </clipPath>
                            <g clip-path="url(#_clip3)">
                                <g transform="matrix(1,0,0,1,316.131,664.904)">
                                    <path d="M0,104.978L-14.846,106.815L48.535,11.391L13.827,-6.298L-30.109,39.088L-14.902,111.276L0,104.978Z" style="fill:rgb(229,87,69);fill-rule:nonzero;"/>
                                </g>
                                <g transform="matrix(1,0,0,1,388.047,689.275)">
                                    <path d="M6.781,44.052L-61.574,-11.526L-31.773,-16.59L5.74,0.162L6.781,44.052Z" style="fill:rgb(208,86,45);fill-rule:nonzero;"/>
                                </g>
                                <g transform="matrix(1,0,0,1,350.644,661.291)">
                                    <path d="M0.011,36.099L-22.567,17.761L-10.604,11.394L12.801,16.037L0.011,36.099Z" style="fill:rgb(168,68,39);fill-rule:nonzero;"/>
                                </g>
                            </g>
                        </g>
                    </g>
                    <g>
                        <g transform="matrix(2.44429,0,0,2.44429,1119.8,494.647)">
                            <path d="M0,-65.99C-15.963,-75.234 -31.324,-74.454 -31.324,-74.454C-31.324,-74.454 -46.684,-75.234 -62.646,-65.99C-74.828,-58.935 -82.345,-36.045 -72.218,-10.506C-64.387,9.244 -58.297,8.775 -58.297,8.775L-35.425,8.775C-35.425,8.775 -36.846,-6.731 -35.605,-12.022C-34.161,-18.182 -32.796,-19.397 -31.346,-19.397C-29.896,-19.397 -28.815,-18.195 -26.904,-12.022C-25.297,-6.831 -27.222,8.775 -27.222,8.775L-4.351,8.775C-4.351,8.775 3.567,8.33 11.398,-11.419C21.524,-36.958 12.181,-58.935 0,-65.99" style="fill:rgb(255,125,75);fill-rule:nonzero;"/>
                        </g>
                        <g transform="matrix(2.44429,0,0,2.44429,195.294,-1340.28)">
                            <clipPath id="_clip4">
                                <path d="M346.909,676.249C346.909,676.249 331.549,675.468 315.585,684.712C303.404,691.766 295.888,714.658 306.015,740.197C311.438,753.874 316.026,757.854 318.335,759.009L342.745,759.009C342.387,756.187 340.632,741.42 342.56,736.908C345.168,730.796 346.909,732.205 346.909,732.205C346.909,732.205 348.65,730.796 351.259,736.908C353.186,741.42 351.431,756.187 351.071,759.009L375.483,759.009C377.792,757.854 384.207,752.961 389.631,739.285C399.758,713.744 390.414,691.766 378.232,684.712C364.577,676.804 351.361,676.231 347.827,676.231C347.228,676.231 346.909,676.249 346.909,676.249Z" clip-rule="nonzero"/>
                            </clipPath>
                            <g clip-path="url(#_clip4)">
                                <g transform="matrix(1,0,0,1,316.131,664.904)">
                                    <path d="M0,104.978L-14.846,106.815L48.535,11.391L13.827,-6.298L-30.109,39.088L-14.902,111.276L0,104.978Z" style="fill:rgb(229,87,69);fill-rule:nonzero;"/>
                                </g>
                                <g transform="matrix(1,0,0,1,388.047,689.275)">
                                    <path d="M6.781,44.052L-61.574,-11.526L-31.773,-16.59L5.74,0.162L6.781,44.052Z" style="fill:rgb(208,86,45);fill-rule:nonzero;"/>
                                </g>
                                <g transform="matrix(1,0,0,1,350.644,661.291)">
                                    <path d="M0.011,36.099L-22.567,17.761L-10.604,11.394L12.801,16.037L0.011,36.099Z" style="fill:rgb(168,68,39);fill-rule:nonzero;"/>
                                </g>
                            </g>
                        </g>
                    </g>
                    <g>
                        <g transform="matrix(2.43278,0.236863,-0.236863,2.43278,361.408,-1409.4)">
                            <g transform="matrix(1,0,0,1,360.686,592.701)">
                                <path d="M0,22.638L-8.159,2.24L-33.827,-13.058L-37.736,19.068L-28.047,35.696L0,22.638Z" style="fill:rgb(243,98,44);fill-rule:nonzero;"/>
                            </g>
                            <g transform="matrix(1,0,0,1,348.957,595.451)">
                                <path d="M0,20.908L-15.043,-6.119L-19.633,-3.57L-22.098,12.741L-13.769,27.027L0,20.908Z" style="fill:rgb(198,82,39);fill-rule:nonzero;"/>
                            </g>
                            <g transform="matrix(-0.39394,0.919136,0.919136,0.39394,344.393,612.103)">
                                <clipPath id="_clip5">
                                    <path d="M-12.65,-21.816L3.312,-17.656L13.162,-4.372L2.113,5.873L-16.802,-18.602L-12.65,-21.816Z" clip-rule="nonzero"/>
                                </clipPath>
                                <g clip-path="url(#_clip5)">
                                    <path d="M-8.123,-17.656L3.313,-17.656L13.33,-9.294L5.894,-2.918L-8.123,-17.656Z" style="fill:rgb(247,224,151);fill-rule:nonzero;"/>
                                </g>
                            </g>
                        </g>
                        <g transform="matrix(2.44429,0,0,2.44429,192.85,-1340.28)">
                            <g transform="matrix(1,0,0,1,464.885,628.397)">
                                <path d="M0,-42.125L-27.707,-29.886L-32.958,-7.617L-3.739,0L4.42,-21.063L0,-42.125Z" style="fill:rgb(243,98,44);fill-rule:nonzero;"/>
                            </g>
                            <g transform="matrix(1,0,0,1,442.235,603.101)">
                                <path d="M0,15.552L6.927,-1.531L19.675,-7.395L23.563,-0.256L14.023,22.947L0,15.552Z" style="fill:rgb(198,82,39);fill-rule:nonzero;"/>
                            </g>
                            <g transform="matrix(0.998498,-0.0547827,-0.0547827,-0.998498,456.781,602.762)">
                                <clipPath id="_clip6">
                                    <path d="M-7.543,1.608L-15.394,-15.07L0.94,-23.372L9,-0.577L5.508,6.765L-7.543,1.608Z" clip-rule="nonzero"/>
                                </clipPath>
                                <g clip-path="url(#_clip6)">
                                    <path d="M0.549,0.142L11.428,0.142L-0.081,-20.322L-5.535,-17.065L0.549,0.142Z" style="fill:rgb(247,224,151);fill-rule:nonzero;"/>
                                </g>
                            </g>
                        </g>
                        <g transform="matrix(2.44429,0,0,2.44429,1305.02,408.974)">
                            <path d="M-111.746,-56.409L1.02,-55.797L-10.879,-26.561L-50.612,-5.637L-58.135,-5.637L-103.123,-30.421L-111.746,-56.409Z" style="fill:rgb(238,157,119);fill-rule:nonzero;"/>
                        </g>
                        <g transform="matrix(2.44429,0,0,2.44429,994.232,348.832)">
                            <path d="M3.962,-71.315C3.983,-71.344 35.726,-82.271 65.926,-81.853C96.182,-81.435 107.429,-77.774 114.229,-75.901C121.027,-74.028 138.025,-65.868 138.025,-65.868C138.025,-65.868 138.025,-63.719 134.966,-51.196C131.906,-38.671 128.167,-31.192 128.167,-31.192C128.167,-31.192 105.729,-19.214 97.23,-13.815C88.731,-8.414 83.411,-6.091 83.411,-6.091L82.271,5.837L62.639,7.239L59.154,-6.714L15.402,-31.803L3.962,-71.315Z" style="fill:rgb(246,115,69);fill-rule:nonzero;"/>
                        </g>
                        <g transform="matrix(2.44429,0,0,2.44429,1146.61,379.992)">
                            <path d="M0,-66.293L19.931,-66.293L14.676,-5.423L4.61,-5.777L0,-66.293Z" style="fill:rgb(239,72,58);fill-rule:nonzero;"/>
                        </g>
                        <g transform="matrix(2.44429,0,0,2.44429,195.294,-1337.84)">
                            <clipPath id="_clip7">
                                <path d="M330.821,618.731C330.821,618.731 334.243,633.414 336.062,640.113C337.741,646.298 342.261,658.243 342.261,658.243L386.014,683.332L389.498,702.286L409.131,700.882L409.131,686.052C409.131,686.052 415.591,681.632 424.09,676.231C432.589,670.832 455.026,658.854 455.026,658.854C455.026,658.854 458.766,651.375 461.825,638.851C464.885,626.326 464.885,624.178 464.885,624.178C464.885,624.178 447.887,616.019 441.088,614.146C434.288,612.272 423.409,608.54 393.152,608.2C392.737,608.195 392.323,608.193 391.905,608.193C360.436,608.193 330.821,618.731 330.821,618.731Z" clip-rule="nonzero"/>
                            </clipPath>
                            <g clip-path="url(#_clip7)">
                                <g transform="matrix(-0.280153,-0.959955,-0.959955,0.280153,486.234,632.11)">
                                    <path d="M-24.816,48.959L45.57,48.959L12.587,5.108L-22.222,26.6L-24.816,48.959Z" style="fill:rgb(244,134,77);fill-rule:nonzero;"/>
                                </g>
                                <g transform="matrix(0.539314,0.842105,0.842105,-0.539314,394.895,571.037)">
                                    <path d="M-0.451,-43.766L52.5,-43.766L66.434,-22.009L55.336,14.973L-0.451,-43.766Z" style="fill:rgb(241,95,55);fill-rule:nonzero;"/>
                                </g>
                                <g transform="matrix(-0.456585,0.88968,0.88968,0.456585,356.575,679.115)">
                                    <path d="M-75.614,-21.383C-54.228,-21.715 -33.121,-22.633 -11.398,-22.254L-21.344,-63.841L-47.053,-77.035L-75.614,-21.383Z" style="fill:rgb(242,90,71);fill-rule:nonzero;"/>
                                </g>
                            </g>
                        </g>
                        <g transform="matrix(2.44429,0,0,2.44429,1147.34,388.339)">
                            <path d="M0,-8.924L4.335,-11.729L13.769,-11.729L19.633,-10.326L11.729,2.805L8.307,2.805L0,-8.924Z" style="fill:rgb(14,15,17);fill-rule:nonzero;"/>
                        </g>
                        <g transform="matrix(0,2.44429,2.44429,0,1098.02,206.113)">
                            <path d="M15.839,-15.84C24.587,-15.84 31.679,-8.749 31.679,-0.001C31.679,8.747 24.587,15.839 15.839,15.839C7.091,15.839 0,8.747 0,-0.001C0,-8.749 7.091,-15.84 15.839,-15.84" style="fill:rgb(245,245,245);fill-rule:nonzero;"/>
                        </g>
                        <g transform="matrix(0,-2.44429,-2.44429,0,1077.29,233.971)">
                            <clipPath id="_clip8">
                                <path d="M-4.441,7.361C-13.189,7.361 -20.281,0.269 -20.281,-8.478C-20.281,-17.227 -13.189,-24.318 -4.441,-24.318C4.307,-24.318 11.398,-17.227 11.398,-8.478C11.398,0.269 4.307,7.361 -4.441,7.361Z" clip-rule="nonzero"/>
                            </clipPath>
                            <g clip-path="url(#_clip8)">
                                <path d="M-9.189,-10.189C-14.264,-10.189 -18.378,-6.075 -18.378,-1C-18.378,4.075 -14.264,8.189 -9.189,8.189C-4.114,8.189 0,4.075 0,-1C0,-6.075 -4.114,-10.189 -9.189,-10.189" style="fill-rule:nonzero;"/>
                            </g>
                        </g>
                        <g transform="matrix(0,2.44429,2.44429,0,1245.1,206.112)">
                            <path d="M15.84,-15.84C24.587,-15.84 31.68,-8.749 31.68,-0C31.68,8.747 24.587,15.84 15.84,15.84C7.092,15.84 0.001,8.747 0.001,-0C0.001,-8.749 7.092,-15.84 15.84,-15.84" style="fill:rgb(245,245,245);fill-rule:nonzero;"/>
                        </g>
                        <g transform="matrix(0,-2.44429,-2.44429,0,1224.38,233.971)">
                            <clipPath id="_clip9">
                                <path d="M-4.441,7.361C-13.189,7.361 -20.281,0.27 -20.281,-8.478C-20.281,-17.226 -13.189,-24.318 -4.441,-24.318C4.307,-24.318 11.398,-17.226 11.398,-8.478C11.398,0.27 4.307,7.361 -4.441,7.361Z" clip-rule="nonzero"/>
                            </clipPath>
                            <g clip-path="url(#_clip9)">
                                <path d="M-9.189,-10.189C-14.264,-10.189 -18.378,-6.075 -18.378,-1.001C-18.378,4.075 -14.264,8.189 -9.189,8.189C-4.114,8.189 0,4.075 0,-1.001C0,-6.075 -4.114,-10.189 -9.189,-10.189" style="fill-rule:nonzero;"/>
                            </g>
                        </g>
                    </g>
                    <g>
                        <g transform="matrix(2.43278,0.236863,-0.236863,2.43278,361.408,-1409.4)">
                            <g transform="matrix(1,0,0,1,360.686,592.701)">
                                <path d="M0,22.638L-8.159,2.24L-33.827,-13.058L-37.736,19.068L-28.047,35.696L0,22.638Z" style="fill:rgb(243,98,44);fill-rule:nonzero;"/>
                            </g>
                            <g transform="matrix(1,0,0,1,348.957,595.451)">
                                <path d="M0,20.908L-15.043,-6.119L-19.633,-3.57L-22.098,12.741L-13.769,27.027L0,20.908Z" style="fill:rgb(198,82,39);fill-rule:nonzero;"/>
                            </g>
                            <g transform="matrix(-0.39394,0.919136,0.919136,0.39394,344.393,612.103)">
                                <clipPath id="_clip10">
                                    <path d="M-12.65,-21.816L3.312,-17.656L13.162,-4.372L2.113,5.873L-16.802,-18.602L-12.65,-21.816Z" clip-rule="nonzero"/>
                                </clipPath>
                                <g clip-path="url(#_clip10)">
                                    <path d="M-8.123,-17.656L3.313,-17.656L13.33,-9.294L5.894,-2.918L-8.123,-17.656Z" style="fill:rgb(247,224,151);fill-rule:nonzero;"/>
                                </g>
                            </g>
                        </g>
                        <g transform="matrix(2.44429,0,0,2.44429,192.85,-1340.28)">
                            <g transform="matrix(1,0,0,1,464.885,628.397)">
                                <path d="M0,-42.125L-27.707,-29.886L-32.958,-7.617L-3.739,0L4.42,-21.063L0,-42.125Z" style="fill:rgb(243,98,44);fill-rule:nonzero;"/>
                            </g>
                            <g transform="matrix(1,0,0,1,442.235,603.101)">
                                <path d="M0,15.552L6.927,-1.531L19.675,-7.395L23.563,-0.256L14.023,22.947L0,15.552Z" style="fill:rgb(198,82,39);fill-rule:nonzero;"/>
                            </g>
                            <g transform="matrix(0.998498,-0.0547827,-0.0547827,-0.998498,456.781,602.762)">
                                <clipPath id="_clip11">
                                    <path d="M-7.543,1.608L-15.394,-15.07L0.94,-23.372L9,-0.577L5.508,6.765L-7.543,1.608Z" clip-rule="nonzero"/>
                                </clipPath>
                                <g clip-path="url(#_clip11)">
                                    <path d="M0.549,0.142L11.428,0.142L-0.081,-20.322L-5.535,-17.065L0.549,0.142Z" style="fill:rgb(247,224,151);fill-rule:nonzero;"/>
                                </g>
                            </g>
                        </g>
                        <g transform="matrix(2.44429,0,0,2.44429,1305.02,408.974)">
                            <path d="M-111.746,-56.409L1.02,-55.797L-10.879,-26.561L-50.612,-5.637L-58.135,-5.637L-103.123,-30.421L-111.746,-56.409Z" style="fill:rgb(238,157,119);fill-rule:nonzero;"/>
                        </g>
                        <g transform="matrix(2.44429,0,0,2.44429,994.232,348.832)">
                            <path d="M3.962,-71.315C3.983,-71.344 35.726,-82.271 65.926,-81.853C96.182,-81.435 107.429,-77.774 114.229,-75.901C121.027,-74.028 138.025,-65.868 138.025,-65.868C138.025,-65.868 138.025,-63.719 134.966,-51.196C131.906,-38.671 128.167,-31.192 128.167,-31.192C128.167,-31.192 105.729,-19.214 97.23,-13.815C88.731,-8.414 83.411,-6.091 83.411,-6.091L82.271,5.837L62.639,7.239L59.154,-6.714L15.402,-31.803L3.962,-71.315Z" style="fill:rgb(246,115,69);fill-rule:nonzero;"/>
                        </g>
                        <g transform="matrix(2.44429,0,0,2.44429,1146.61,379.992)">
                            <path d="M0,-66.293L19.931,-66.293L14.676,-5.423L4.61,-5.777L0,-66.293Z" style="fill:rgb(239,72,58);fill-rule:nonzero;"/>
                        </g>
                        <g transform="matrix(2.44429,0,0,2.44429,195.294,-1337.84)">
                            <clipPath id="_clip12">
                                <path d="M330.821,618.731C330.821,618.731 334.243,633.414 336.062,640.113C337.741,646.298 342.261,658.243 342.261,658.243L386.014,683.332L389.498,702.286L409.131,700.882L409.131,686.052C409.131,686.052 415.591,681.632 424.09,676.231C432.589,670.832 455.026,658.854 455.026,658.854C455.026,658.854 458.766,651.375 461.825,638.851C464.885,626.326 464.885,624.178 464.885,624.178C464.885,624.178 447.887,616.019 441.088,614.146C434.288,612.272 423.409,608.54 393.152,608.2C392.737,608.195 392.323,608.193 391.905,608.193C360.436,608.193 330.821,618.731 330.821,618.731Z" clip-rule="nonzero"/>
                            </clipPath>
                            <g clip-path="url(#_clip12)">
                                <g transform="matrix(-0.280153,-0.959955,-0.959955,0.280153,486.234,632.11)">
                                    <path d="M-24.816,48.959L45.57,48.959L12.587,5.108L-22.222,26.6L-24.816,48.959Z" style="fill:rgb(244,134,77);fill-rule:nonzero;"/>
                                </g>
                                <g transform="matrix(0.539314,0.842105,0.842105,-0.539314,394.895,571.037)">
                                    <path d="M-0.451,-43.766L52.5,-43.766L66.434,-22.009L55.336,14.973L-0.451,-43.766Z" style="fill:rgb(241,95,55);fill-rule:nonzero;"/>
                                </g>
                                <g transform="matrix(-0.456585,0.88968,0.88968,0.456585,356.575,679.115)">
                                    <path d="M-75.614,-21.383C-54.228,-21.715 -33.121,-22.633 -11.398,-22.254L-21.344,-63.841L-47.053,-77.035L-75.614,-21.383Z" style="fill:rgb(242,90,71);fill-rule:nonzero;"/>
                                </g>
                            </g>
                        </g>
                        <g transform="matrix(2.44429,0,0,2.44429,1147.34,388.339)">
                            <path d="M0,-8.924L4.335,-11.729L13.769,-11.729L19.633,-10.326L11.729,2.805L8.307,2.805L0,-8.924Z" style="fill:rgb(14,15,17);fill-rule:nonzero;"/>
                        </g>
                        <g transform="matrix(0,2.44429,2.44429,0,1098.02,206.113)">
                            <path d="M15.839,-15.84C24.587,-15.84 31.679,-8.749 31.679,-0.001C31.679,8.747 24.587,15.839 15.839,15.839C7.091,15.839 0,8.747 0,-0.001C0,-8.749 7.091,-15.84 15.839,-15.84" style="fill:rgb(245,245,245);fill-rule:nonzero;"/>
                        </g>
                        <g transform="matrix(0,-2.44429,-2.44429,0,1077.29,233.971)">
                            <clipPath id="_clip13">
                                <path d="M-4.441,7.361C-13.189,7.361 -20.281,0.269 -20.281,-8.478C-20.281,-17.227 -13.189,-24.318 -4.441,-24.318C4.307,-24.318 11.398,-17.227 11.398,-8.478C11.398,0.269 4.307,7.361 -4.441,7.361Z" clip-rule="nonzero"/>
                            </clipPath>
                            <g clip-path="url(#_clip13)">
                                <path d="M-9.189,-10.189C-14.264,-10.189 -18.378,-6.075 -18.378,-1C-18.378,4.075 -14.264,8.189 -9.189,8.189C-4.114,8.189 0,4.075 0,-1C0,-6.075 -4.114,-10.189 -9.189,-10.189" style="fill-rule:nonzero;"/>
                            </g>
                        </g>
                        <g transform="matrix(0,2.44429,2.44429,0,1245.1,206.112)">
                            <path d="M15.84,-15.84C24.587,-15.84 31.68,-8.749 31.68,-0C31.68,8.747 24.587,15.84 15.84,15.84C7.092,15.84 0.001,8.747 0.001,-0C0.001,-8.749 7.092,-15.84 15.84,-15.84" style="fill:rgb(245,245,245);fill-rule:nonzero;"/>
                        </g>
                        <g transform="matrix(0,-2.44429,-2.44429,0,1224.38,233.971)">
                            <clipPath id="_clip14">
                                <path d="M-4.441,7.361C-13.189,7.361 -20.281,0.27 -20.281,-8.478C-20.281,-17.226 -13.189,-24.318 -4.441,-24.318C4.307,-24.318 11.398,-17.226 11.398,-8.478C11.398,0.27 4.307,7.361 -4.441,7.361Z" clip-rule="nonzero"/>
                            </clipPath>
                            <g clip-path="url(#_clip14)">
                                <path d="M-9.189,-10.189C-14.264,-10.189 -18.378,-6.075 -18.378,-1.001C-18.378,4.075 -14.264,8.189 -9.189,8.189C-4.114,8.189 0,4.075 0,-1.001C0,-6.075 -4.114,-10.189 -9.189,-10.189" style="fill-rule:nonzero;"/>
                            </g>
                        </g>
                    </g>
                </g>
            </g>
        </g>
    </g>
    <defs>
        <radialGradient id="_Radial1" cx="0" cy="0" r="1" gradientUnits="userSpaceOnUse" gradientTransform="matrix(4.74364,0,0,21.4269,471.928,261.203)"><stop offset="0" style="stop-color:rgb(131,131,131);stop-opacity:1"/><stop offset="0.2" style="stop-color:rgb(101,101,101);stop-opacity:1"/><stop offset="1" style="stop-color:rgb(139,138,138);stop-opacity:1"/></radialGradient>
        <linearGradient id="_Linear2" x1="0" y1="0" x2="1" y2="0" gradientUnits="userSpaceOnUse" gradientTransform="matrix(98.2477,0,0,98.2477,329.554,257.766)"><stop offset="0" style="stop-color:rgb(0,57,154);stop-opacity:1"/><stop offset="1" style="stop-color:rgb(24,85,161);stop-opacity:1"/></linearGradient>
    </defs>
</svg>
